<mxfile host="Electron" agent="Mozilla/5.0 (X11; Linux x86_64) AppleWebKit/537.36 (KHTML, like Gecko) draw.io/27.0.2 Chrome/134.0.6998.205 Electron/35.3.0 Safari/537.36" version="27.0.2">
  <diagram id="C5RBs43oDa-KdzZeNtuy" name="Page-1">
    <mxGraphModel dx="4811" dy="2406" grid="1" gridSize="10" guides="1" tooltips="1" connect="1" arrows="1" fold="1" page="1" pageScale="1" pageWidth="827" pageHeight="1169" math="0" shadow="0">
      <root>
        <object label="" data_size="64" num_bodies="512" add_sub_cycle_time="20" mult_cycle_time="11" recip_sqrt_cycle_time="27" id="WIyWlLk6GJQsqaUBKTNV-0">
          <mxCell />
        </object>
        <mxCell id="WIyWlLk6GJQsqaUBKTNV-1" parent="WIyWlLk6GJQsqaUBKTNV-0" />
        <mxCell id="Mj_dXQXe_xVPS9inti-g-2" value="&lt;h1 style=&quot;margin-top: 0px;&quot;&gt;&lt;span style=&quot;background-color: transparent; color: light-dark(rgb(0, 0, 0), rgb(255, 255, 255));&quot;&gt;Data Path&lt;br&gt;&lt;/span&gt;&lt;span style=&quot;font-size: 12px; font-weight: 400; background-color: transparent; color: light-dark(rgb(0, 0, 0), rgb(255, 255, 255));&quot;&gt;Outlines how data and signals for the actual simulation are passed around and computed&lt;/span&gt;&lt;/h1&gt;" style="text;html=1;whiteSpace=wrap;overflow=hidden;rounded=0;" parent="WIyWlLk6GJQsqaUBKTNV-1" vertex="1">
          <mxGeometry x="-810" y="20" width="230" height="120" as="geometry" />
        </mxCell>
        <mxCell id="Mj_dXQXe_xVPS9inti-g-34" value="" style="endArrow=classic;html=1;rounded=0;fillColor=#60a917;strokeColor=#2D7600;" parent="WIyWlLk6GJQsqaUBKTNV-1" edge="1">
          <mxGeometry relative="1" as="geometry">
            <mxPoint x="-810" y="170" as="sourcePoint" />
            <mxPoint x="-590" y="170" as="targetPoint" />
          </mxGeometry>
        </mxCell>
        <mxCell id="Mj_dXQXe_xVPS9inti-g-35" value="Signal" style="edgeLabel;resizable=0;html=1;;align=center;verticalAlign=middle;" parent="Mj_dXQXe_xVPS9inti-g-34" connectable="0" vertex="1">
          <mxGeometry relative="1" as="geometry" />
        </mxCell>
        <mxCell id="Mj_dXQXe_xVPS9inti-g-36" value="" style="endArrow=classic;html=1;rounded=0;" parent="WIyWlLk6GJQsqaUBKTNV-1" edge="1">
          <mxGeometry relative="1" as="geometry">
            <mxPoint x="-810" y="210" as="sourcePoint" />
            <mxPoint x="-590" y="210" as="targetPoint" />
          </mxGeometry>
        </mxCell>
        <mxCell id="Mj_dXQXe_xVPS9inti-g-37" value="Data" style="edgeLabel;resizable=0;html=1;;align=center;verticalAlign=middle;" parent="Mj_dXQXe_xVPS9inti-g-36" connectable="0" vertex="1">
          <mxGeometry relative="1" as="geometry" />
        </mxCell>
        <mxCell id="Mj_dXQXe_xVPS9inti-g-57" value="Input Parameters" style="swimlane;whiteSpace=wrap;html=1;dashed=1;dashPattern=12 12;" parent="WIyWlLk6GJQsqaUBKTNV-1" vertex="1">
          <mxGeometry x="-93" y="60" width="920" height="170" as="geometry" />
        </mxCell>
        <object label="&lt;div&gt;mass&lt;/div&gt;&lt;div&gt;&lt;span style=&quot;background-color: transparent; color: light-dark(rgb(0, 0, 0), rgb(255, 255, 255));&quot;&gt;%num_bodies%*%data_size% bits of memory&lt;/span&gt;&lt;/div&gt;" placeholders="1" id="Mj_dXQXe_xVPS9inti-g-6">
          <mxCell style="rounded=0;whiteSpace=wrap;html=1;" parent="Mj_dXQXe_xVPS9inti-g-57" vertex="1">
            <mxGeometry x="30" y="50" width="150" height="90" as="geometry" />
          </mxCell>
        </object>
        <object label="&lt;div&gt;x_pos&lt;/div&gt;&lt;div&gt;&lt;span style=&quot;background-color: transparent; color: light-dark(rgb(0, 0, 0), rgb(255, 255, 255));&quot;&gt;%num_bodies%*%data_size% bits of memory&lt;/span&gt;&lt;/div&gt;" placeholders="1" id="uFNOIIMhj7ET_EeYBou_-3">
          <mxCell style="rounded=0;whiteSpace=wrap;html=1;" parent="Mj_dXQXe_xVPS9inti-g-57" vertex="1">
            <mxGeometry x="210" y="50" width="150" height="90" as="geometry" />
          </mxCell>
        </object>
        <object label="&lt;div&gt;y_pos&lt;/div&gt;&lt;div&gt;&lt;span style=&quot;background-color: transparent; color: light-dark(rgb(0, 0, 0), rgb(255, 255, 255));&quot;&gt;%num_bodies%*%data_size% bits of memory&lt;/span&gt;&lt;/div&gt;" placeholders="1" id="uFNOIIMhj7ET_EeYBou_-2">
          <mxCell style="rounded=0;whiteSpace=wrap;html=1;" parent="Mj_dXQXe_xVPS9inti-g-57" vertex="1">
            <mxGeometry x="390" y="50" width="150" height="90" as="geometry" />
          </mxCell>
        </object>
        <object label="&lt;div&gt;x_velocity&lt;/div&gt;&lt;div&gt;&lt;span style=&quot;background-color: transparent; color: light-dark(rgb(0, 0, 0), rgb(255, 255, 255));&quot;&gt;%num_bodies%*%data_size% bits of memory&lt;/span&gt;&lt;/div&gt;" placeholders="1" id="uFNOIIMhj7ET_EeYBou_-1">
          <mxCell style="rounded=0;whiteSpace=wrap;html=1;" parent="Mj_dXQXe_xVPS9inti-g-57" vertex="1">
            <mxGeometry x="570" y="50" width="150" height="90" as="geometry" />
          </mxCell>
        </object>
        <object label="&lt;div&gt;y_velocity&lt;/div&gt;&lt;div&gt;&lt;span style=&quot;background-color: transparent; color: light-dark(rgb(0, 0, 0), rgb(255, 255, 255));&quot;&gt;%num_bodies%*%data_size% bits of memory&lt;/span&gt;&lt;/div&gt;" placeholders="1" id="uFNOIIMhj7ET_EeYBou_-0">
          <mxCell style="rounded=0;whiteSpace=wrap;html=1;" parent="Mj_dXQXe_xVPS9inti-g-57" vertex="1">
            <mxGeometry x="750" y="50" width="150" height="90" as="geometry" />
          </mxCell>
        </object>
        <mxCell id="Mj_dXQXe_xVPS9inti-g-75" value="" style="endArrow=classic;html=1;rounded=0;shape=flexArrow;entryX=0.5;entryY=0;entryDx=0;entryDy=0;exitX=0.5;exitY=1;exitDx=0;exitDy=0;" parent="WIyWlLk6GJQsqaUBKTNV-1" source="Mj_dXQXe_xVPS9inti-g-57" target="Mj_dXQXe_xVPS9inti-g-55" edge="1">
          <mxGeometry relative="1" as="geometry">
            <mxPoint x="-70" y="420" as="sourcePoint" />
            <mxPoint x="580" y="690" as="targetPoint" />
          </mxGeometry>
        </mxCell>
        <mxCell id="Mj_dXQXe_xVPS9inti-g-76" value="Values fed in via loop for x_pos, y_pos and mass" style="edgeLabel;resizable=0;html=1;;align=center;verticalAlign=middle;" parent="Mj_dXQXe_xVPS9inti-g-75" connectable="0" vertex="1">
          <mxGeometry relative="1" as="geometry" />
        </mxCell>
        <object label="&lt;div&gt;num_bodies: %num_bodies%&lt;/div&gt;&lt;div&gt;data_size: %data_size%&lt;/div&gt;" placeholders="1" id="iQ0qVmi0pnjZVPIt117S-0">
          <mxCell style="text;html=1;align=center;verticalAlign=middle;resizable=0;points=[];autosize=1;strokeColor=none;fillColor=none;" parent="WIyWlLk6GJQsqaUBKTNV-1" vertex="1">
            <mxGeometry x="-780" y="250" width="120" height="40" as="geometry" />
          </mxCell>
        </object>
        <mxCell id="did9jxoM15FYPqJHivJg-36" value="" style="endArrow=classic;html=1;rounded=0;shape=flexArrow;entryX=0.5;entryY=0;entryDx=0;entryDy=0;exitX=0.25;exitY=1;exitDx=0;exitDy=0;" parent="WIyWlLk6GJQsqaUBKTNV-1" source="Mj_dXQXe_xVPS9inti-g-57" target="did9jxoM15FYPqJHivJg-30" edge="1">
          <mxGeometry relative="1" as="geometry">
            <mxPoint x="320" y="280" as="sourcePoint" />
            <mxPoint x="180" y="585" as="targetPoint" />
          </mxGeometry>
        </mxCell>
        <mxCell id="did9jxoM15FYPqJHivJg-37" value="Values fed in via loop for x_pos and y_pos" style="edgeLabel;resizable=0;html=1;;align=center;verticalAlign=middle;" parent="did9jxoM15FYPqJHivJg-36" connectable="0" vertex="1">
          <mxGeometry relative="1" as="geometry" />
        </mxCell>
        <mxCell id="cMHt4JDN44Z_v_gMNhpz-0" value="State 1: Calc Accel" style="swimlane;whiteSpace=wrap;html=1;" vertex="1" parent="WIyWlLk6GJQsqaUBKTNV-1">
          <mxGeometry x="-680" y="380" width="1233" height="1150" as="geometry" />
        </mxCell>
        <mxCell id="cMHt4JDN44Z_v_gMNhpz-2" value="j Body (v_read_j, v_write_j)" style="swimlane;whiteSpace=wrap;html=1;dashed=1;dashPattern=12 12;" vertex="1" parent="cMHt4JDN44Z_v_gMNhpz-0">
          <mxGeometry x="720" y="680" width="420" height="160" as="geometry" />
        </mxCell>
        <object label="&lt;div&gt;y_velocity&lt;/div&gt;&lt;div&gt;&lt;span style=&quot;background-color: transparent; color: light-dark(rgb(0, 0, 0), rgb(255, 255, 255));&quot;&gt;%data_size% bit value&lt;/span&gt;&lt;/div&gt;" placeholders="1" id="uFNOIIMhj7ET_EeYBou_-5">
          <mxCell style="rounded=0;whiteSpace=wrap;html=1;" parent="cMHt4JDN44Z_v_gMNhpz-2" vertex="1">
            <mxGeometry x="230" y="32.5" width="170" height="95" as="geometry" />
          </mxCell>
        </object>
        <object label="&lt;div&gt;x_velocity&lt;/div&gt;&lt;div&gt;&lt;span style=&quot;background-color: transparent; color: light-dark(rgb(0, 0, 0), rgb(255, 255, 255));&quot;&gt;%data_size% bit value&lt;/span&gt;&lt;/div&gt;" placeholders="1" id="uFNOIIMhj7ET_EeYBou_-6">
          <mxCell style="rounded=0;whiteSpace=wrap;html=1;" parent="cMHt4JDN44Z_v_gMNhpz-2" vertex="1">
            <mxGeometry x="30" y="32.5" width="170" height="95" as="geometry" />
          </mxCell>
        </object>
        <mxCell id="Mj_dXQXe_xVPS9inti-g-55" value="i Body (p_read_i)" style="swimlane;whiteSpace=wrap;html=1;dashed=1;dashPattern=12 12;" parent="cMHt4JDN44Z_v_gMNhpz-0" vertex="1">
          <mxGeometry x="550" y="110" width="630" height="160" as="geometry" />
        </mxCell>
        <object label="&lt;div&gt;x_pos&lt;/div&gt;&lt;div&gt;&lt;span style=&quot;background-color: transparent; color: light-dark(rgb(0, 0, 0), rgb(255, 255, 255));&quot;&gt;%data_size% bit value&lt;/span&gt;&lt;/div&gt;" placeholders="1" id="Mj_dXQXe_xVPS9inti-g-54">
          <mxCell style="rounded=0;whiteSpace=wrap;html=1;" parent="Mj_dXQXe_xVPS9inti-g-55" vertex="1">
            <mxGeometry x="20" y="40" width="170" height="95" as="geometry" />
          </mxCell>
        </object>
        <object label="&lt;div&gt;y_pos&lt;/div&gt;&lt;div&gt;&lt;span style=&quot;background-color: transparent; color: light-dark(rgb(0, 0, 0), rgb(255, 255, 255));&quot;&gt;%data_size% bit value&lt;/span&gt;&lt;/div&gt;" placeholders="1" id="uFNOIIMhj7ET_EeYBou_-7">
          <mxCell style="rounded=0;whiteSpace=wrap;html=1;" parent="Mj_dXQXe_xVPS9inti-g-55" vertex="1">
            <mxGeometry x="220" y="40" width="170" height="95" as="geometry" />
          </mxCell>
        </object>
        <object label="&lt;div&gt;&lt;span style=&quot;background-color: transparent; color: light-dark(rgb(0, 0, 0), rgb(255, 255, 255));&quot;&gt;mass&lt;/span&gt;&lt;/div&gt;&lt;div&gt;&lt;span style=&quot;background-color: transparent; color: light-dark(rgb(0, 0, 0), rgb(255, 255, 255));&quot;&gt;%data_size% bit value&lt;/span&gt;&lt;/div&gt;" placeholders="1" id="uFNOIIMhj7ET_EeYBou_-4">
          <mxCell style="rounded=0;whiteSpace=wrap;html=1;" parent="Mj_dXQXe_xVPS9inti-g-55" vertex="1">
            <mxGeometry x="420" y="40" width="170" height="95" as="geometry" />
          </mxCell>
        </object>
        <mxCell id="did9jxoM15FYPqJHivJg-30" value="j Body (p_read_j)" style="swimlane;whiteSpace=wrap;html=1;dashed=1;dashPattern=12 12;" parent="cMHt4JDN44Z_v_gMNhpz-0" vertex="1">
          <mxGeometry x="60" y="110" width="420" height="160" as="geometry" />
        </mxCell>
        <object label="&lt;div&gt;x_pos&lt;/div&gt;&lt;div&gt;&lt;span style=&quot;background-color: transparent; color: light-dark(rgb(0, 0, 0), rgb(255, 255, 255));&quot;&gt;%data_size% bit value&lt;/span&gt;&lt;/div&gt;" placeholders="1" id="did9jxoM15FYPqJHivJg-31">
          <mxCell style="rounded=0;whiteSpace=wrap;html=1;" parent="did9jxoM15FYPqJHivJg-30" vertex="1">
            <mxGeometry x="30" y="40" width="170" height="95" as="geometry" />
          </mxCell>
        </object>
        <object label="&lt;div&gt;y_pos&lt;/div&gt;&lt;div&gt;&lt;span style=&quot;background-color: transparent; color: light-dark(rgb(0, 0, 0), rgb(255, 255, 255));&quot;&gt;%data_size% bit value&lt;/span&gt;&lt;/div&gt;" placeholders="1" id="did9jxoM15FYPqJHivJg-32">
          <mxCell style="rounded=0;whiteSpace=wrap;html=1;" parent="did9jxoM15FYPqJHivJg-30" vertex="1">
            <mxGeometry x="230" y="40" width="170" height="95" as="geometry" />
          </mxCell>
        </object>
        <mxCell id="did9jxoM15FYPqJHivJg-42" value="" style="endArrow=classic;html=1;rounded=0;exitX=0.5;exitY=1;exitDx=0;exitDy=0;entryX=0.5;entryY=0;entryDx=0;entryDy=0;" parent="cMHt4JDN44Z_v_gMNhpz-0" source="Mj_dXQXe_xVPS9inti-g-54" target="cMHt4JDN44Z_v_gMNhpz-379" edge="1">
          <mxGeometry width="50" height="50" relative="1" as="geometry">
            <mxPoint x="-190" y="250" as="sourcePoint" />
            <mxPoint x="309.98073375246213" y="403.43576332725615" as="targetPoint" />
          </mxGeometry>
        </mxCell>
        <mxCell id="did9jxoM15FYPqJHivJg-43" value="" style="endArrow=classic;html=1;rounded=0;exitX=0.5;exitY=1;exitDx=0;exitDy=0;entryX=0.5;entryY=0;entryDx=0;entryDy=0;" parent="cMHt4JDN44Z_v_gMNhpz-0" source="did9jxoM15FYPqJHivJg-31" target="cMHt4JDN44Z_v_gMNhpz-377" edge="1">
          <mxGeometry width="50" height="50" relative="1" as="geometry">
            <mxPoint x="690" y="140" as="sourcePoint" />
            <mxPoint x="424.0192662475374" y="403.43576332725615" as="targetPoint" />
          </mxGeometry>
        </mxCell>
        <mxCell id="did9jxoM15FYPqJHivJg-44" value="" style="endArrow=classic;html=1;rounded=0;exitX=0.5;exitY=1;exitDx=0;exitDy=0;entryX=0.5;entryY=0;entryDx=0;entryDy=0;" parent="cMHt4JDN44Z_v_gMNhpz-0" source="uFNOIIMhj7ET_EeYBou_-7" target="cMHt4JDN44Z_v_gMNhpz-380" edge="1">
          <mxGeometry width="50" height="50" relative="1" as="geometry">
            <mxPoint x="-303" y="105" as="sourcePoint" />
            <mxPoint x="522.9807337524621" y="403.4357633272557" as="targetPoint" />
          </mxGeometry>
        </mxCell>
        <mxCell id="did9jxoM15FYPqJHivJg-45" value="" style="endArrow=classic;html=1;rounded=0;exitX=0.5;exitY=1;exitDx=0;exitDy=0;entryX=0.5;entryY=0;entryDx=0;entryDy=0;" parent="cMHt4JDN44Z_v_gMNhpz-0" source="did9jxoM15FYPqJHivJg-32" target="cMHt4JDN44Z_v_gMNhpz-378" edge="1">
          <mxGeometry width="50" height="50" relative="1" as="geometry">
            <mxPoint x="936.9899999999998" y="118.04500000000007" as="sourcePoint" />
            <mxPoint x="638.3133914576797" y="404.19292526764093" as="targetPoint" />
          </mxGeometry>
        </mxCell>
        <mxCell id="did9jxoM15FYPqJHivJg-46" value="" style="endArrow=classic;html=1;rounded=0;exitX=0.5;exitY=1;exitDx=0;exitDy=0;entryX=0.5;entryY=0;entryDx=0;entryDy=0;" parent="cMHt4JDN44Z_v_gMNhpz-0" source="uFNOIIMhj7ET_EeYBou_-4" target="cMHt4JDN44Z_v_gMNhpz-381" edge="1">
          <mxGeometry width="50" height="50" relative="1" as="geometry">
            <mxPoint x="1485" y="200" as="sourcePoint" />
            <mxPoint x="1050" y="405" as="targetPoint" />
          </mxGeometry>
        </mxCell>
        <object label="&lt;div&gt;&lt;font color=&quot;#000000&quot;&gt;If it is the first iteration, subtract one from the exponent value, effectively dividing it by two&lt;/font&gt;&lt;/div&gt;" placeholders="1" id="LS4zaPeZ_nrLv8XPF2ae-12">
          <mxCell style="ellipse;whiteSpace=wrap;html=1;fillColor=#a0522d;fontColor=#ffffff;strokeColor=#6D1F00;" parent="cMHt4JDN44Z_v_gMNhpz-0" vertex="1">
            <mxGeometry x="220" y="720" width="160" height="90" as="geometry" />
          </mxCell>
        </object>
        <object label="&lt;span style=&quot;color: rgb(0, 0, 0);&quot;&gt;If it is the first iteration, subtract one from the exponent value, effectively dividing it by two&lt;/span&gt;" placeholders="1" id="LS4zaPeZ_nrLv8XPF2ae-13">
          <mxCell style="ellipse;whiteSpace=wrap;html=1;fillColor=#a0522d;fontColor=#ffffff;strokeColor=#6D1F00;" parent="cMHt4JDN44Z_v_gMNhpz-0" vertex="1">
            <mxGeometry x="457" y="720" width="160" height="90" as="geometry" />
          </mxCell>
        </object>
        <mxCell id="LS4zaPeZ_nrLv8XPF2ae-20" value="" style="endArrow=classic;html=1;rounded=0;exitX=0.5;exitY=1;exitDx=0;exitDy=0;entryX=0.5;entryY=0;entryDx=0;entryDy=0;" parent="cMHt4JDN44Z_v_gMNhpz-0" source="LS4zaPeZ_nrLv8XPF2ae-12" edge="1" target="LS4zaPeZ_nrLv8XPF2ae-32">
          <mxGeometry width="50" height="50" relative="1" as="geometry">
            <mxPoint x="230" y="912" as="sourcePoint" />
            <mxPoint x="300" y="902" as="targetPoint" />
          </mxGeometry>
        </mxCell>
        <mxCell id="LS4zaPeZ_nrLv8XPF2ae-24" value="" style="endArrow=classic;html=1;rounded=0;exitX=0.5;exitY=1;exitDx=0;exitDy=0;entryX=0.5;entryY=0;entryDx=0;entryDy=0;" parent="cMHt4JDN44Z_v_gMNhpz-0" source="LS4zaPeZ_nrLv8XPF2ae-13" edge="1">
          <mxGeometry width="50" height="50" relative="1" as="geometry">
            <mxPoint x="535.5799999999999" y="800" as="sourcePoint" />
            <mxPoint x="537" y="890" as="targetPoint" />
          </mxGeometry>
        </mxCell>
        <object label="&lt;font color=&quot;#000000&quot;&gt;Add&lt;/font&gt;" placeholders="1" id="LS4zaPeZ_nrLv8XPF2ae-31">
          <mxCell style="ellipse;whiteSpace=wrap;html=1;fillColor=#e3c800;fontColor=#000000;strokeColor=#B09500;" parent="cMHt4JDN44Z_v_gMNhpz-0" vertex="1">
            <mxGeometry x="457" y="890" width="160" height="90" as="geometry" />
          </mxCell>
        </object>
        <object label="&lt;div&gt;&lt;span style=&quot;background-color: transparent;&quot;&gt;&lt;font style=&quot;color: light-dark(rgb(0, 0, 0), rgb(0, 0, 0));&quot;&gt;Add&lt;/font&gt;&lt;/span&gt;&lt;/div&gt;" placeholders="1" id="LS4zaPeZ_nrLv8XPF2ae-32">
          <mxCell style="ellipse;whiteSpace=wrap;html=1;fillColor=#e3c800;fontColor=#000000;strokeColor=#B09500;" parent="cMHt4JDN44Z_v_gMNhpz-0" vertex="1">
            <mxGeometry x="220" y="890" width="160" height="90" as="geometry" />
          </mxCell>
        </object>
        <mxCell id="LS4zaPeZ_nrLv8XPF2ae-45" value="" style="endArrow=classic;html=1;rounded=0;entryX=1;entryY=0;entryDx=0;entryDy=0;exitX=0.25;exitY=1;exitDx=0;exitDy=0;" parent="cMHt4JDN44Z_v_gMNhpz-0" target="LS4zaPeZ_nrLv8XPF2ae-31" edge="1" source="uFNOIIMhj7ET_EeYBou_-5">
          <mxGeometry width="50" height="50" relative="1" as="geometry">
            <mxPoint x="703" y="860" as="sourcePoint" />
            <mxPoint x="313" y="670" as="targetPoint" />
          </mxGeometry>
        </mxCell>
        <mxCell id="cMHt4JDN44Z_v_gMNhpz-5" value="" style="endArrow=classic;html=1;rounded=0;entryX=1;entryY=0;entryDx=0;entryDy=0;exitX=0.25;exitY=1;exitDx=0;exitDy=0;" edge="1" parent="cMHt4JDN44Z_v_gMNhpz-0" source="uFNOIIMhj7ET_EeYBou_-6" target="LS4zaPeZ_nrLv8XPF2ae-32">
          <mxGeometry width="50" height="50" relative="1" as="geometry">
            <mxPoint x="779" y="780" as="sourcePoint" />
            <mxPoint x="380" y="898" as="targetPoint" />
          </mxGeometry>
        </mxCell>
        <mxCell id="cMHt4JDN44Z_v_gMNhpz-6" value="" style="curved=1;endArrow=classic;html=1;rounded=0;exitX=0.5;exitY=1;exitDx=0;exitDy=0;entryX=0.5;entryY=1;entryDx=0;entryDy=0;" edge="1" parent="cMHt4JDN44Z_v_gMNhpz-0" source="LS4zaPeZ_nrLv8XPF2ae-31" target="uFNOIIMhj7ET_EeYBou_-5">
          <mxGeometry width="50" height="50" relative="1" as="geometry">
            <mxPoint x="750" y="840" as="sourcePoint" />
            <mxPoint x="800" y="790" as="targetPoint" />
            <Array as="points">
              <mxPoint x="630" y="1120" />
              <mxPoint x="1000" y="1050" />
            </Array>
          </mxGeometry>
        </mxCell>
        <mxCell id="cMHt4JDN44Z_v_gMNhpz-7" value="" style="curved=1;endArrow=classic;html=1;rounded=0;exitX=0.5;exitY=1;exitDx=0;exitDy=0;" edge="1" parent="cMHt4JDN44Z_v_gMNhpz-0" source="LS4zaPeZ_nrLv8XPF2ae-32">
          <mxGeometry width="50" height="50" relative="1" as="geometry">
            <mxPoint x="320" y="1005" as="sourcePoint" />
            <mxPoint x="840" y="790" as="targetPoint" />
            <Array as="points">
              <mxPoint x="420" y="1130" />
              <mxPoint x="783" y="1075" />
            </Array>
          </mxGeometry>
        </mxCell>
        <mxCell id="cMHt4JDN44Z_v_gMNhpz-358" value="getAccl()" style="swimlane;whiteSpace=wrap;html=1;" vertex="1" parent="cMHt4JDN44Z_v_gMNhpz-0">
          <mxGeometry x="290" y="400" width="570" height="250" as="geometry" />
        </mxCell>
        <mxCell id="cMHt4JDN44Z_v_gMNhpz-377" value="x_1" style="whiteSpace=wrap;html=1;aspect=fixed;fillColor=#1ba1e2;fontColor=#ffffff;strokeColor=#006EAF;" vertex="1" parent="cMHt4JDN44Z_v_gMNhpz-358">
          <mxGeometry x="40" y="35" width="80" height="80" as="geometry" />
        </mxCell>
        <mxCell id="cMHt4JDN44Z_v_gMNhpz-378" value="y_1" style="whiteSpace=wrap;html=1;aspect=fixed;fillColor=#1ba1e2;fontColor=#ffffff;strokeColor=#006EAF;" vertex="1" parent="cMHt4JDN44Z_v_gMNhpz-358">
          <mxGeometry x="150" y="35" width="80" height="80" as="geometry" />
        </mxCell>
        <mxCell id="cMHt4JDN44Z_v_gMNhpz-379" value="x_2" style="whiteSpace=wrap;html=1;aspect=fixed;fillColor=#1ba1e2;fontColor=#ffffff;strokeColor=#006EAF;" vertex="1" parent="cMHt4JDN44Z_v_gMNhpz-358">
          <mxGeometry x="260" y="35" width="80" height="80" as="geometry" />
        </mxCell>
        <mxCell id="cMHt4JDN44Z_v_gMNhpz-380" value="y_2" style="whiteSpace=wrap;html=1;aspect=fixed;fillColor=#1ba1e2;fontColor=#ffffff;strokeColor=#006EAF;" vertex="1" parent="cMHt4JDN44Z_v_gMNhpz-358">
          <mxGeometry x="370" y="35" width="80" height="80" as="geometry" />
        </mxCell>
        <mxCell id="cMHt4JDN44Z_v_gMNhpz-381" value="m_2" style="whiteSpace=wrap;html=1;aspect=fixed;fillColor=#1ba1e2;fontColor=#ffffff;strokeColor=#006EAF;" vertex="1" parent="cMHt4JDN44Z_v_gMNhpz-358">
          <mxGeometry x="470" y="35" width="80" height="80" as="geometry" />
        </mxCell>
        <mxCell id="cMHt4JDN44Z_v_gMNhpz-388" value="a_x" style="whiteSpace=wrap;html=1;aspect=fixed;fillColor=#1ba1e2;fontColor=#ffffff;strokeColor=#006EAF;" vertex="1" parent="cMHt4JDN44Z_v_gMNhpz-358">
          <mxGeometry x="40" y="140" width="80" height="80" as="geometry" />
        </mxCell>
        <mxCell id="cMHt4JDN44Z_v_gMNhpz-396" value="a_x" style="whiteSpace=wrap;html=1;aspect=fixed;fillColor=#1ba1e2;fontColor=#ffffff;strokeColor=#006EAF;" vertex="1" parent="cMHt4JDN44Z_v_gMNhpz-358">
          <mxGeometry x="150" y="140" width="80" height="80" as="geometry" />
        </mxCell>
        <mxCell id="cMHt4JDN44Z_v_gMNhpz-397" value="Takes in positions and masses of bodies 1 and 2, and calculates the acceleration on body 1. NOTE: we feed in body j as body 1" style="text;html=1;align=center;verticalAlign=middle;whiteSpace=wrap;rounded=0;" vertex="1" parent="cMHt4JDN44Z_v_gMNhpz-358">
          <mxGeometry x="260" y="140" width="280" height="30" as="geometry" />
        </mxCell>
        <mxCell id="cMHt4JDN44Z_v_gMNhpz-398" value="" style="endArrow=classic;html=1;rounded=0;exitX=0.5;exitY=1;exitDx=0;exitDy=0;entryX=0.5;entryY=0;entryDx=0;entryDy=0;" edge="1" parent="cMHt4JDN44Z_v_gMNhpz-0" source="cMHt4JDN44Z_v_gMNhpz-388" target="LS4zaPeZ_nrLv8XPF2ae-12">
          <mxGeometry width="50" height="50" relative="1" as="geometry">
            <mxPoint x="710" y="630" as="sourcePoint" />
            <mxPoint x="760" y="580" as="targetPoint" />
          </mxGeometry>
        </mxCell>
        <mxCell id="cMHt4JDN44Z_v_gMNhpz-399" value="" style="endArrow=classic;html=1;rounded=0;exitX=0.5;exitY=1;exitDx=0;exitDy=0;entryX=0.5;entryY=0;entryDx=0;entryDy=0;" edge="1" parent="cMHt4JDN44Z_v_gMNhpz-0" source="cMHt4JDN44Z_v_gMNhpz-396" target="LS4zaPeZ_nrLv8XPF2ae-13">
          <mxGeometry width="50" height="50" relative="1" as="geometry">
            <mxPoint x="710" y="630" as="sourcePoint" />
            <mxPoint x="760" y="580" as="targetPoint" />
          </mxGeometry>
        </mxCell>
        <mxCell id="cMHt4JDN44Z_v_gMNhpz-162" value="State 2: Update Pos" style="swimlane;whiteSpace=wrap;html=1;" vertex="1" parent="WIyWlLk6GJQsqaUBKTNV-1">
          <mxGeometry x="610" y="380" width="920" height="650" as="geometry" />
        </mxCell>
        <mxCell id="cMHt4JDN44Z_v_gMNhpz-265" value="i Body (state_2_read, state_2_pos_write)" style="swimlane;whiteSpace=wrap;html=1;dashed=1;dashPattern=12 12;" vertex="1" parent="cMHt4JDN44Z_v_gMNhpz-162">
          <mxGeometry x="25" y="45" width="875" height="145" as="geometry" />
        </mxCell>
        <object label="&lt;div&gt;y_velocity&lt;/div&gt;&lt;div&gt;&lt;span style=&quot;background-color: transparent; color: light-dark(rgb(0, 0, 0), rgb(255, 255, 255));&quot;&gt;%data_size% bit value&lt;/span&gt;&lt;/div&gt;" placeholders="1" id="cMHt4JDN44Z_v_gMNhpz-266">
          <mxCell style="rounded=0;whiteSpace=wrap;html=1;" vertex="1" parent="cMHt4JDN44Z_v_gMNhpz-265">
            <mxGeometry x="230" y="32.5" width="170" height="95" as="geometry" />
          </mxCell>
        </object>
        <object label="&lt;div&gt;x_velocity&lt;/div&gt;&lt;div&gt;&lt;span style=&quot;background-color: transparent; color: light-dark(rgb(0, 0, 0), rgb(255, 255, 255));&quot;&gt;%data_size% bit value&lt;/span&gt;&lt;/div&gt;" placeholders="1" id="cMHt4JDN44Z_v_gMNhpz-267">
          <mxCell style="rounded=0;whiteSpace=wrap;html=1;" vertex="1" parent="cMHt4JDN44Z_v_gMNhpz-265">
            <mxGeometry x="30" y="32.5" width="170" height="95" as="geometry" />
          </mxCell>
        </object>
        <object label="&lt;div&gt;y_pos&lt;/div&gt;&lt;div&gt;&lt;span style=&quot;background-color: transparent; color: light-dark(rgb(0, 0, 0), rgb(255, 255, 255));&quot;&gt;%data_size% bit value&lt;/span&gt;&lt;/div&gt;" placeholders="1" id="cMHt4JDN44Z_v_gMNhpz-261">
          <mxCell style="rounded=0;whiteSpace=wrap;html=1;" vertex="1" parent="cMHt4JDN44Z_v_gMNhpz-265">
            <mxGeometry x="685" y="35" width="170" height="95" as="geometry" />
          </mxCell>
        </object>
        <object label="&lt;div&gt;x_pos&lt;/div&gt;&lt;div&gt;&lt;span style=&quot;background-color: transparent; color: light-dark(rgb(0, 0, 0), rgb(255, 255, 255));&quot;&gt;%data_size% bit value&lt;/span&gt;&lt;/div&gt;" placeholders="1" id="cMHt4JDN44Z_v_gMNhpz-260">
          <mxCell style="rounded=0;whiteSpace=wrap;html=1;" vertex="1" parent="cMHt4JDN44Z_v_gMNhpz-265">
            <mxGeometry x="455" y="35" width="170" height="95" as="geometry" />
          </mxCell>
        </object>
        <object label="&lt;font color=&quot;#000000&quot;&gt;Add&lt;/font&gt;" placeholders="1" id="cMHt4JDN44Z_v_gMNhpz-268">
          <mxCell style="ellipse;whiteSpace=wrap;html=1;fillColor=#e3c800;fontColor=#000000;strokeColor=#B09500;" vertex="1" parent="cMHt4JDN44Z_v_gMNhpz-162">
            <mxGeometry x="260" y="385" width="160" height="90" as="geometry" />
          </mxCell>
        </object>
        <object label="&lt;div&gt;&lt;span style=&quot;background-color: transparent;&quot;&gt;&lt;font style=&quot;color: light-dark(rgb(0, 0, 0), rgb(0, 0, 0));&quot;&gt;Add&lt;/font&gt;&lt;/span&gt;&lt;/div&gt;" placeholders="1" id="cMHt4JDN44Z_v_gMNhpz-269">
          <mxCell style="ellipse;whiteSpace=wrap;html=1;fillColor=#e3c800;fontColor=#000000;strokeColor=#B09500;" vertex="1" parent="cMHt4JDN44Z_v_gMNhpz-162">
            <mxGeometry x="60" y="385" width="160" height="90" as="geometry" />
          </mxCell>
        </object>
        <mxCell id="cMHt4JDN44Z_v_gMNhpz-271" value="" style="endArrow=classic;html=1;rounded=0;exitX=0.5;exitY=1;exitDx=0;exitDy=0;entryX=0.5;entryY=0;entryDx=0;entryDy=0;" edge="1" parent="cMHt4JDN44Z_v_gMNhpz-162" source="cMHt4JDN44Z_v_gMNhpz-267" target="cMHt4JDN44Z_v_gMNhpz-269">
          <mxGeometry width="50" height="50" relative="1" as="geometry">
            <mxPoint x="335" y="395" as="sourcePoint" />
            <mxPoint x="385" y="345" as="targetPoint" />
          </mxGeometry>
        </mxCell>
        <mxCell id="cMHt4JDN44Z_v_gMNhpz-272" value="" style="endArrow=classic;html=1;rounded=0;exitX=0.5;exitY=1;exitDx=0;exitDy=0;entryX=0.5;entryY=0;entryDx=0;entryDy=0;" edge="1" parent="cMHt4JDN44Z_v_gMNhpz-162" source="cMHt4JDN44Z_v_gMNhpz-266" target="cMHt4JDN44Z_v_gMNhpz-268">
          <mxGeometry width="50" height="50" relative="1" as="geometry">
            <mxPoint x="345" y="395" as="sourcePoint" />
            <mxPoint x="395" y="345" as="targetPoint" />
          </mxGeometry>
        </mxCell>
        <mxCell id="cMHt4JDN44Z_v_gMNhpz-273" value="" style="endArrow=classic;html=1;rounded=0;exitX=0.25;exitY=1;exitDx=0;exitDy=0;entryX=1;entryY=0;entryDx=0;entryDy=0;" edge="1" parent="cMHt4JDN44Z_v_gMNhpz-162" source="cMHt4JDN44Z_v_gMNhpz-260" target="cMHt4JDN44Z_v_gMNhpz-269">
          <mxGeometry width="50" height="50" relative="1" as="geometry">
            <mxPoint x="345" y="395" as="sourcePoint" />
            <mxPoint x="395" y="345" as="targetPoint" />
          </mxGeometry>
        </mxCell>
        <mxCell id="cMHt4JDN44Z_v_gMNhpz-274" value="" style="endArrow=classic;html=1;rounded=0;exitX=0.25;exitY=1;exitDx=0;exitDy=0;entryX=1;entryY=0;entryDx=0;entryDy=0;" edge="1" parent="cMHt4JDN44Z_v_gMNhpz-162" source="cMHt4JDN44Z_v_gMNhpz-261" target="cMHt4JDN44Z_v_gMNhpz-268">
          <mxGeometry width="50" height="50" relative="1" as="geometry">
            <mxPoint x="345" y="395" as="sourcePoint" />
            <mxPoint x="395" y="345" as="targetPoint" />
          </mxGeometry>
        </mxCell>
        <mxCell id="cMHt4JDN44Z_v_gMNhpz-275" value="" style="curved=1;endArrow=classic;html=1;rounded=0;exitX=0.462;exitY=0.997;exitDx=0;exitDy=0;exitPerimeter=0;entryX=0.5;entryY=1;entryDx=0;entryDy=0;" edge="1" parent="cMHt4JDN44Z_v_gMNhpz-162" source="cMHt4JDN44Z_v_gMNhpz-269" target="cMHt4JDN44Z_v_gMNhpz-260">
          <mxGeometry width="50" height="50" relative="1" as="geometry">
            <mxPoint x="345" y="395" as="sourcePoint" />
            <mxPoint x="395" y="345" as="targetPoint" />
            <Array as="points">
              <mxPoint x="170" y="640" />
              <mxPoint x="595" y="615" />
            </Array>
          </mxGeometry>
        </mxCell>
        <mxCell id="cMHt4JDN44Z_v_gMNhpz-276" value="" style="curved=1;endArrow=classic;html=1;rounded=0;exitX=0.5;exitY=1;exitDx=0;exitDy=0;entryX=0.5;entryY=1;entryDx=0;entryDy=0;" edge="1" parent="cMHt4JDN44Z_v_gMNhpz-162" source="cMHt4JDN44Z_v_gMNhpz-268" target="cMHt4JDN44Z_v_gMNhpz-261">
          <mxGeometry width="50" height="50" relative="1" as="geometry">
            <mxPoint x="345" y="472.5" as="sourcePoint" />
            <mxPoint x="801" y="177.5" as="targetPoint" />
            <Array as="points">
              <mxPoint x="390" y="613" />
              <mxPoint x="790" y="610" />
            </Array>
          </mxGeometry>
        </mxCell>
        <mxCell id="cMHt4JDN44Z_v_gMNhpz-278" value="" style="endArrow=classic;html=1;rounded=0;shape=flexArrow;entryX=0.5;entryY=0;entryDx=0;entryDy=0;exitX=0.75;exitY=1;exitDx=0;exitDy=0;" edge="1" parent="WIyWlLk6GJQsqaUBKTNV-1" source="Mj_dXQXe_xVPS9inti-g-57" target="cMHt4JDN44Z_v_gMNhpz-265">
          <mxGeometry relative="1" as="geometry">
            <mxPoint x="642" y="420" as="sourcePoint" />
            <mxPoint x="330" y="620" as="targetPoint" />
          </mxGeometry>
        </mxCell>
        <mxCell id="cMHt4JDN44Z_v_gMNhpz-279" value="Values fed in via loop for x_velocity, y_velocity, x_pos and y_pos" style="edgeLabel;resizable=0;html=1;;align=center;verticalAlign=middle;" connectable="0" vertex="1" parent="cMHt4JDN44Z_v_gMNhpz-278">
          <mxGeometry relative="1" as="geometry" />
        </mxCell>
        <mxCell id="cMHt4JDN44Z_v_gMNhpz-295" value="getAccl()" style="swimlane;whiteSpace=wrap;html=1;" vertex="1" parent="WIyWlLk6GJQsqaUBKTNV-1">
          <mxGeometry x="580" y="1060" width="1050" height="1170" as="geometry" />
        </mxCell>
        <object label="&lt;div&gt;&lt;span style=&quot;background-color: transparent;&quot;&gt;&lt;font style=&quot;color: light-dark(rgb(0, 0, 0), rgb(0, 0, 0));&quot;&gt;Square&lt;/font&gt;&lt;/span&gt;&lt;/div&gt;" placeholders="1" id="cMHt4JDN44Z_v_gMNhpz-296">
          <mxCell style="ellipse;whiteSpace=wrap;html=1;fillColor=#e3c800;fontColor=#000000;strokeColor=#B09500;" vertex="1" parent="cMHt4JDN44Z_v_gMNhpz-295">
            <mxGeometry x="410" y="229" width="160" height="90" as="geometry" />
          </mxCell>
        </object>
        <mxCell id="cMHt4JDN44Z_v_gMNhpz-297" style="edgeStyle=orthogonalEdgeStyle;rounded=0;orthogonalLoop=1;jettySize=auto;html=1;entryX=0.5;entryY=0;entryDx=0;entryDy=0;" edge="1" parent="cMHt4JDN44Z_v_gMNhpz-295" source="cMHt4JDN44Z_v_gMNhpz-298" target="cMHt4JDN44Z_v_gMNhpz-331">
          <mxGeometry relative="1" as="geometry" />
        </mxCell>
        <object label="Shift Reg x diff" placeholders="1" id="cMHt4JDN44Z_v_gMNhpz-298">
          <mxCell style="rounded=0;whiteSpace=wrap;html=1;fillColor=#008a00;fontColor=#ffffff;strokeColor=#005700;" vertex="1" parent="cMHt4JDN44Z_v_gMNhpz-295">
            <mxGeometry x="50" y="234" width="120" height="60" as="geometry" />
          </mxCell>
        </object>
        <object label="&lt;div&gt;&lt;span style=&quot;background-color: transparent;&quot;&gt;&lt;font style=&quot;color: light-dark(rgb(0, 0, 0), rgb(0, 0, 0));&quot;&gt;Sub&lt;/font&gt;&lt;/span&gt;&lt;/div&gt;" placeholders="1" id="cMHt4JDN44Z_v_gMNhpz-299">
          <mxCell style="ellipse;whiteSpace=wrap;html=1;fillColor=#e3c800;fontColor=#000000;strokeColor=#B09500;" vertex="1" parent="cMHt4JDN44Z_v_gMNhpz-295">
            <mxGeometry x="197" y="109" width="160" height="90" as="geometry" />
          </mxCell>
        </object>
        <object label="&lt;div&gt;&lt;span style=&quot;background-color: transparent;&quot;&gt;&lt;font style=&quot;color: light-dark(rgb(0, 0, 0), rgb(0, 0, 0));&quot;&gt;Sub&lt;/font&gt;&lt;/span&gt;&lt;/div&gt;" placeholders="1" id="cMHt4JDN44Z_v_gMNhpz-300">
          <mxCell style="ellipse;whiteSpace=wrap;html=1;fillColor=#e3c800;fontColor=#000000;strokeColor=#B09500;" vertex="1" parent="cMHt4JDN44Z_v_gMNhpz-295">
            <mxGeometry x="410" y="109" width="160" height="90" as="geometry" />
          </mxCell>
        </object>
        <object label="&lt;div&gt;&lt;span style=&quot;background-color: transparent;&quot;&gt;&lt;font style=&quot;color: light-dark(rgb(0, 0, 0), rgb(0, 0, 0));&quot;&gt;Square&lt;/font&gt;&lt;/span&gt;&lt;/div&gt;" placeholders="1" id="cMHt4JDN44Z_v_gMNhpz-301">
          <mxCell style="ellipse;whiteSpace=wrap;html=1;fillColor=#e3c800;fontColor=#000000;strokeColor=#B09500;" vertex="1" parent="cMHt4JDN44Z_v_gMNhpz-295">
            <mxGeometry x="620" y="229" width="160" height="90" as="geometry" />
          </mxCell>
        </object>
        <mxCell id="cMHt4JDN44Z_v_gMNhpz-302" style="edgeStyle=orthogonalEdgeStyle;rounded=0;orthogonalLoop=1;jettySize=auto;html=1;entryX=0.5;entryY=0;entryDx=0;entryDy=0;" edge="1" parent="cMHt4JDN44Z_v_gMNhpz-295" source="cMHt4JDN44Z_v_gMNhpz-303" target="cMHt4JDN44Z_v_gMNhpz-333">
          <mxGeometry relative="1" as="geometry" />
        </mxCell>
        <object label="Shift Reg y diff" placeholders="1" id="cMHt4JDN44Z_v_gMNhpz-303">
          <mxCell style="rounded=0;whiteSpace=wrap;html=1;fillColor=#008a00;fontColor=#ffffff;strokeColor=#005700;" vertex="1" parent="cMHt4JDN44Z_v_gMNhpz-295">
            <mxGeometry x="230" y="234" width="120" height="60" as="geometry" />
          </mxCell>
        </object>
        <mxCell id="cMHt4JDN44Z_v_gMNhpz-304" style="edgeStyle=orthogonalEdgeStyle;rounded=0;orthogonalLoop=1;jettySize=auto;html=1;" edge="1" parent="cMHt4JDN44Z_v_gMNhpz-295" source="cMHt4JDN44Z_v_gMNhpz-305" target="cMHt4JDN44Z_v_gMNhpz-307">
          <mxGeometry relative="1" as="geometry" />
        </mxCell>
        <object label="Shift Reg m" placeholders="1" id="cMHt4JDN44Z_v_gMNhpz-305">
          <mxCell style="rounded=0;whiteSpace=wrap;html=1;fillColor=#008a00;fontColor=#ffffff;strokeColor=#005700;" vertex="1" parent="cMHt4JDN44Z_v_gMNhpz-295">
            <mxGeometry x="900" y="124" width="120" height="60" as="geometry" />
          </mxCell>
        </object>
        <mxCell id="cMHt4JDN44Z_v_gMNhpz-306" style="edgeStyle=orthogonalEdgeStyle;rounded=0;orthogonalLoop=1;jettySize=auto;html=1;" edge="1" parent="cMHt4JDN44Z_v_gMNhpz-295" source="cMHt4JDN44Z_v_gMNhpz-307" target="cMHt4JDN44Z_v_gMNhpz-309">
          <mxGeometry relative="1" as="geometry" />
        </mxCell>
        <object label="Shift Reg m" placeholders="1" id="cMHt4JDN44Z_v_gMNhpz-307">
          <mxCell style="rounded=0;whiteSpace=wrap;html=1;fillColor=#008a00;fontColor=#ffffff;strokeColor=#005700;" vertex="1" parent="cMHt4JDN44Z_v_gMNhpz-295">
            <mxGeometry x="900" y="244" width="120" height="60" as="geometry" />
          </mxCell>
        </object>
        <mxCell id="cMHt4JDN44Z_v_gMNhpz-308" style="edgeStyle=orthogonalEdgeStyle;rounded=0;orthogonalLoop=1;jettySize=auto;html=1;entryX=0.5;entryY=0;entryDx=0;entryDy=0;" edge="1" parent="cMHt4JDN44Z_v_gMNhpz-295" source="cMHt4JDN44Z_v_gMNhpz-309" target="cMHt4JDN44Z_v_gMNhpz-311">
          <mxGeometry relative="1" as="geometry" />
        </mxCell>
        <object label="Shift Reg m" placeholders="1" id="cMHt4JDN44Z_v_gMNhpz-309">
          <mxCell style="rounded=0;whiteSpace=wrap;html=1;fillColor=#008a00;fontColor=#ffffff;strokeColor=#005700;" vertex="1" parent="cMHt4JDN44Z_v_gMNhpz-295">
            <mxGeometry x="900" y="364" width="120" height="60" as="geometry" />
          </mxCell>
        </object>
        <mxCell id="cMHt4JDN44Z_v_gMNhpz-310" style="edgeStyle=orthogonalEdgeStyle;rounded=0;orthogonalLoop=1;jettySize=auto;html=1;entryX=0.5;entryY=0;entryDx=0;entryDy=0;" edge="1" parent="cMHt4JDN44Z_v_gMNhpz-295" source="cMHt4JDN44Z_v_gMNhpz-311" target="cMHt4JDN44Z_v_gMNhpz-313">
          <mxGeometry relative="1" as="geometry" />
        </mxCell>
        <object label="Shift Reg m" placeholders="1" id="cMHt4JDN44Z_v_gMNhpz-311">
          <mxCell style="rounded=0;whiteSpace=wrap;html=1;fillColor=#008a00;fontColor=#ffffff;strokeColor=#005700;" vertex="1" parent="cMHt4JDN44Z_v_gMNhpz-295">
            <mxGeometry x="900" y="484" width="120" height="60" as="geometry" />
          </mxCell>
        </object>
        <mxCell id="cMHt4JDN44Z_v_gMNhpz-312" style="edgeStyle=orthogonalEdgeStyle;rounded=0;orthogonalLoop=1;jettySize=auto;html=1;entryX=0.5;entryY=0;entryDx=0;entryDy=0;" edge="1" parent="cMHt4JDN44Z_v_gMNhpz-295" source="cMHt4JDN44Z_v_gMNhpz-313" target="cMHt4JDN44Z_v_gMNhpz-320">
          <mxGeometry relative="1" as="geometry" />
        </mxCell>
        <object label="Shift Reg m" placeholders="1" id="cMHt4JDN44Z_v_gMNhpz-313">
          <mxCell style="rounded=0;whiteSpace=wrap;html=1;fillColor=#008a00;fontColor=#ffffff;strokeColor=#005700;" vertex="1" parent="cMHt4JDN44Z_v_gMNhpz-295">
            <mxGeometry x="900" y="604" width="120" height="60" as="geometry" />
          </mxCell>
        </object>
        <mxCell id="cMHt4JDN44Z_v_gMNhpz-314" style="edgeStyle=orthogonalEdgeStyle;rounded=0;orthogonalLoop=1;jettySize=auto;html=1;" edge="1" parent="cMHt4JDN44Z_v_gMNhpz-295" source="cMHt4JDN44Z_v_gMNhpz-315" target="cMHt4JDN44Z_v_gMNhpz-316">
          <mxGeometry relative="1" as="geometry" />
        </mxCell>
        <object label="&lt;div&gt;&lt;span style=&quot;background-color: transparent;&quot;&gt;&lt;font style=&quot;color: light-dark(rgb(0, 0, 0), rgb(0, 0, 0));&quot;&gt;Add&lt;/font&gt;&lt;/span&gt;&lt;/div&gt;" placeholders="1" id="cMHt4JDN44Z_v_gMNhpz-315">
          <mxCell style="ellipse;whiteSpace=wrap;html=1;fillColor=#e3c800;fontColor=#000000;strokeColor=#B09500;" vertex="1" parent="cMHt4JDN44Z_v_gMNhpz-295">
            <mxGeometry x="515" y="349" width="160" height="90" as="geometry" />
          </mxCell>
        </object>
        <object label="&lt;div&gt;&lt;span style=&quot;background-color: transparent;&quot;&gt;&lt;font style=&quot;color: light-dark(rgb(0, 0, 0), rgb(0, 0, 0));&quot;&gt;Inverse Sqrt&lt;/font&gt;&lt;/span&gt;&lt;/div&gt;" placeholders="1" id="cMHt4JDN44Z_v_gMNhpz-316">
          <mxCell style="ellipse;whiteSpace=wrap;html=1;fillColor=#e3c800;fontColor=#000000;strokeColor=#B09500;" vertex="1" parent="cMHt4JDN44Z_v_gMNhpz-295">
            <mxGeometry x="515" y="469" width="160" height="90" as="geometry" />
          </mxCell>
        </object>
        <object label="&lt;div&gt;&lt;span style=&quot;background-color: transparent;&quot;&gt;&lt;font style=&quot;color: light-dark(rgb(0, 0, 0), rgb(0, 0, 0));&quot;&gt;Multiply&lt;/font&gt;&lt;/span&gt;&lt;/div&gt;" placeholders="1" id="cMHt4JDN44Z_v_gMNhpz-317">
          <mxCell style="ellipse;whiteSpace=wrap;html=1;fillColor=#e3c800;fontColor=#000000;strokeColor=#B09500;" vertex="1" parent="cMHt4JDN44Z_v_gMNhpz-295">
            <mxGeometry x="410" y="589" width="160" height="90" as="geometry" />
          </mxCell>
        </object>
        <mxCell id="cMHt4JDN44Z_v_gMNhpz-318" style="edgeStyle=orthogonalEdgeStyle;rounded=0;orthogonalLoop=1;jettySize=auto;html=1;entryX=0.5;entryY=0;entryDx=0;entryDy=0;" edge="1" parent="cMHt4JDN44Z_v_gMNhpz-295" source="cMHt4JDN44Z_v_gMNhpz-319" target="cMHt4JDN44Z_v_gMNhpz-321">
          <mxGeometry relative="1" as="geometry" />
        </mxCell>
        <object label="&lt;div&gt;&lt;span style=&quot;background-color: transparent;&quot;&gt;&lt;font style=&quot;color: light-dark(rgb(0, 0, 0), rgb(0, 0, 0));&quot;&gt;Multiply&lt;/font&gt;&lt;/span&gt;&lt;/div&gt;" placeholders="1" id="cMHt4JDN44Z_v_gMNhpz-319">
          <mxCell style="ellipse;whiteSpace=wrap;html=1;fillColor=#e3c800;fontColor=#000000;strokeColor=#B09500;" vertex="1" parent="cMHt4JDN44Z_v_gMNhpz-295">
            <mxGeometry x="515" y="709" width="160" height="90" as="geometry" />
          </mxCell>
        </object>
        <object label="Shift Reg m" placeholders="1" id="cMHt4JDN44Z_v_gMNhpz-320">
          <mxCell style="rounded=0;whiteSpace=wrap;html=1;fillColor=#008a00;fontColor=#ffffff;strokeColor=#005700;" vertex="1" parent="cMHt4JDN44Z_v_gMNhpz-295">
            <mxGeometry x="900" y="724" width="120" height="60" as="geometry" />
          </mxCell>
        </object>
        <object label="&lt;div&gt;&lt;span style=&quot;background-color: transparent;&quot;&gt;&lt;font style=&quot;color: light-dark(rgb(0, 0, 0), rgb(0, 0, 0));&quot;&gt;Multiply&lt;/font&gt;&lt;/span&gt;&lt;/div&gt;" placeholders="1" id="cMHt4JDN44Z_v_gMNhpz-321">
          <mxCell style="ellipse;whiteSpace=wrap;html=1;fillColor=#e3c800;fontColor=#000000;strokeColor=#B09500;" vertex="1" parent="cMHt4JDN44Z_v_gMNhpz-295">
            <mxGeometry x="515" y="829" width="160" height="90" as="geometry" />
          </mxCell>
        </object>
        <object label="&lt;div&gt;&lt;span style=&quot;background-color: transparent;&quot;&gt;&lt;font style=&quot;color: light-dark(rgb(0, 0, 0), rgb(0, 0, 0));&quot;&gt;Multiply&lt;/font&gt;&lt;/span&gt;&lt;/div&gt;" placeholders="1" id="cMHt4JDN44Z_v_gMNhpz-322">
          <mxCell style="ellipse;whiteSpace=wrap;html=1;fillColor=#e3c800;fontColor=#000000;strokeColor=#B09500;" vertex="1" parent="cMHt4JDN44Z_v_gMNhpz-295">
            <mxGeometry x="357" y="989" width="160" height="90" as="geometry" />
          </mxCell>
        </object>
        <object label="&lt;div&gt;&lt;span style=&quot;background-color: transparent;&quot;&gt;&lt;font style=&quot;color: light-dark(rgb(0, 0, 0), rgb(0, 0, 0));&quot;&gt;Multiply&lt;/font&gt;&lt;/span&gt;&lt;/div&gt;" placeholders="1" id="cMHt4JDN44Z_v_gMNhpz-323">
          <mxCell style="ellipse;whiteSpace=wrap;html=1;fillColor=#e3c800;fontColor=#000000;strokeColor=#B09500;" vertex="1" parent="cMHt4JDN44Z_v_gMNhpz-295">
            <mxGeometry x="120" y="989" width="160" height="90" as="geometry" />
          </mxCell>
        </object>
        <mxCell id="cMHt4JDN44Z_v_gMNhpz-324" value="" style="endArrow=classic;html=1;rounded=0;exitX=0.5;exitY=1;exitDx=0;exitDy=0;entryX=1;entryY=0;entryDx=0;entryDy=0;" edge="1" parent="cMHt4JDN44Z_v_gMNhpz-295" source="cMHt4JDN44Z_v_gMNhpz-301" target="cMHt4JDN44Z_v_gMNhpz-315">
          <mxGeometry width="50" height="50" relative="1" as="geometry">
            <mxPoint x="820" y="439" as="sourcePoint" />
            <mxPoint x="870" y="389" as="targetPoint" />
          </mxGeometry>
        </mxCell>
        <mxCell id="cMHt4JDN44Z_v_gMNhpz-325" value="" style="endArrow=classic;html=1;rounded=0;exitX=0.5;exitY=1;exitDx=0;exitDy=0;entryX=0;entryY=0;entryDx=0;entryDy=0;" edge="1" parent="cMHt4JDN44Z_v_gMNhpz-295" source="cMHt4JDN44Z_v_gMNhpz-296" target="cMHt4JDN44Z_v_gMNhpz-315">
          <mxGeometry width="50" height="50" relative="1" as="geometry">
            <mxPoint x="680" y="399" as="sourcePoint" />
            <mxPoint x="730" y="349" as="targetPoint" />
          </mxGeometry>
        </mxCell>
        <mxCell id="cMHt4JDN44Z_v_gMNhpz-326" value="" style="endArrow=classic;html=1;rounded=0;entryX=0.5;entryY=0;entryDx=0;entryDy=0;exitX=0.84;exitY=0.887;exitDx=0;exitDy=0;exitPerimeter=0;" edge="1" parent="cMHt4JDN44Z_v_gMNhpz-295" source="cMHt4JDN44Z_v_gMNhpz-300" target="cMHt4JDN44Z_v_gMNhpz-301">
          <mxGeometry width="50" height="50" relative="1" as="geometry">
            <mxPoint x="470" y="269" as="sourcePoint" />
            <mxPoint x="520" y="219" as="targetPoint" />
          </mxGeometry>
        </mxCell>
        <mxCell id="cMHt4JDN44Z_v_gMNhpz-327" value="" style="endArrow=classic;html=1;rounded=0;exitX=1;exitY=1;exitDx=0;exitDy=0;entryX=0.5;entryY=0;entryDx=0;entryDy=0;" edge="1" parent="cMHt4JDN44Z_v_gMNhpz-295" source="cMHt4JDN44Z_v_gMNhpz-299" target="cMHt4JDN44Z_v_gMNhpz-296">
          <mxGeometry width="50" height="50" relative="1" as="geometry">
            <mxPoint x="280" y="209" as="sourcePoint" />
            <mxPoint x="360" y="199" as="targetPoint" />
          </mxGeometry>
        </mxCell>
        <mxCell id="cMHt4JDN44Z_v_gMNhpz-328" value="" style="endArrow=classic;html=1;rounded=0;exitX=0.153;exitY=0.887;exitDx=0;exitDy=0;entryX=0.5;entryY=0;entryDx=0;entryDy=0;exitPerimeter=0;" edge="1" parent="cMHt4JDN44Z_v_gMNhpz-295" source="cMHt4JDN44Z_v_gMNhpz-300" target="cMHt4JDN44Z_v_gMNhpz-303">
          <mxGeometry width="50" height="50" relative="1" as="geometry">
            <mxPoint x="460" y="339" as="sourcePoint" />
            <mxPoint x="510" y="289" as="targetPoint" />
          </mxGeometry>
        </mxCell>
        <mxCell id="cMHt4JDN44Z_v_gMNhpz-329" value="" style="endArrow=classic;html=1;rounded=0;exitX=0;exitY=1;exitDx=0;exitDy=0;entryX=0.5;entryY=0;entryDx=0;entryDy=0;" edge="1" parent="cMHt4JDN44Z_v_gMNhpz-295" source="cMHt4JDN44Z_v_gMNhpz-299" target="cMHt4JDN44Z_v_gMNhpz-298">
          <mxGeometry width="50" height="50" relative="1" as="geometry">
            <mxPoint x="340" y="259" as="sourcePoint" />
            <mxPoint x="390" y="209" as="targetPoint" />
          </mxGeometry>
        </mxCell>
        <mxCell id="cMHt4JDN44Z_v_gMNhpz-330" style="edgeStyle=orthogonalEdgeStyle;rounded=0;orthogonalLoop=1;jettySize=auto;html=1;entryX=0.5;entryY=0;entryDx=0;entryDy=0;" edge="1" parent="cMHt4JDN44Z_v_gMNhpz-295" source="cMHt4JDN44Z_v_gMNhpz-331" target="cMHt4JDN44Z_v_gMNhpz-335">
          <mxGeometry relative="1" as="geometry" />
        </mxCell>
        <object label="Shift Reg x diff" placeholders="1" id="cMHt4JDN44Z_v_gMNhpz-331">
          <mxCell style="rounded=0;whiteSpace=wrap;html=1;fillColor=#008a00;fontColor=#ffffff;strokeColor=#005700;" vertex="1" parent="cMHt4JDN44Z_v_gMNhpz-295">
            <mxGeometry x="50" y="364" width="120" height="60" as="geometry" />
          </mxCell>
        </object>
        <mxCell id="cMHt4JDN44Z_v_gMNhpz-332" style="edgeStyle=orthogonalEdgeStyle;rounded=0;orthogonalLoop=1;jettySize=auto;html=1;" edge="1" parent="cMHt4JDN44Z_v_gMNhpz-295" source="cMHt4JDN44Z_v_gMNhpz-333" target="cMHt4JDN44Z_v_gMNhpz-337">
          <mxGeometry relative="1" as="geometry" />
        </mxCell>
        <object label="Shift Reg y diff" placeholders="1" id="cMHt4JDN44Z_v_gMNhpz-333">
          <mxCell style="rounded=0;whiteSpace=wrap;html=1;fillColor=#008a00;fontColor=#ffffff;strokeColor=#005700;" vertex="1" parent="cMHt4JDN44Z_v_gMNhpz-295">
            <mxGeometry x="230" y="364" width="120" height="60" as="geometry" />
          </mxCell>
        </object>
        <mxCell id="cMHt4JDN44Z_v_gMNhpz-334" style="edgeStyle=orthogonalEdgeStyle;rounded=0;orthogonalLoop=1;jettySize=auto;html=1;entryX=0.5;entryY=0;entryDx=0;entryDy=0;" edge="1" parent="cMHt4JDN44Z_v_gMNhpz-295" source="cMHt4JDN44Z_v_gMNhpz-335" target="cMHt4JDN44Z_v_gMNhpz-339">
          <mxGeometry relative="1" as="geometry" />
        </mxCell>
        <object label="Shift Reg x diff" placeholders="1" id="cMHt4JDN44Z_v_gMNhpz-335">
          <mxCell style="rounded=0;whiteSpace=wrap;html=1;fillColor=#008a00;fontColor=#ffffff;strokeColor=#005700;" vertex="1" parent="cMHt4JDN44Z_v_gMNhpz-295">
            <mxGeometry x="50" y="484" width="120" height="60" as="geometry" />
          </mxCell>
        </object>
        <mxCell id="cMHt4JDN44Z_v_gMNhpz-336" style="edgeStyle=orthogonalEdgeStyle;rounded=0;orthogonalLoop=1;jettySize=auto;html=1;entryX=0.5;entryY=0;entryDx=0;entryDy=0;" edge="1" parent="cMHt4JDN44Z_v_gMNhpz-295" source="cMHt4JDN44Z_v_gMNhpz-337" target="cMHt4JDN44Z_v_gMNhpz-341">
          <mxGeometry relative="1" as="geometry" />
        </mxCell>
        <object label="Shift Reg y diff" placeholders="1" id="cMHt4JDN44Z_v_gMNhpz-337">
          <mxCell style="rounded=0;whiteSpace=wrap;html=1;fillColor=#008a00;fontColor=#ffffff;strokeColor=#005700;" vertex="1" parent="cMHt4JDN44Z_v_gMNhpz-295">
            <mxGeometry x="230" y="484" width="120" height="60" as="geometry" />
          </mxCell>
        </object>
        <mxCell id="cMHt4JDN44Z_v_gMNhpz-338" style="edgeStyle=orthogonalEdgeStyle;rounded=0;orthogonalLoop=1;jettySize=auto;html=1;entryX=0.5;entryY=0;entryDx=0;entryDy=0;" edge="1" parent="cMHt4JDN44Z_v_gMNhpz-295" source="cMHt4JDN44Z_v_gMNhpz-339" target="cMHt4JDN44Z_v_gMNhpz-343">
          <mxGeometry relative="1" as="geometry" />
        </mxCell>
        <object label="Shift Reg x diff" placeholders="1" id="cMHt4JDN44Z_v_gMNhpz-339">
          <mxCell style="rounded=0;whiteSpace=wrap;html=1;fillColor=#008a00;fontColor=#ffffff;strokeColor=#005700;" vertex="1" parent="cMHt4JDN44Z_v_gMNhpz-295">
            <mxGeometry x="50" y="604" width="120" height="60" as="geometry" />
          </mxCell>
        </object>
        <mxCell id="cMHt4JDN44Z_v_gMNhpz-340" style="edgeStyle=orthogonalEdgeStyle;rounded=0;orthogonalLoop=1;jettySize=auto;html=1;entryX=0.5;entryY=0;entryDx=0;entryDy=0;" edge="1" parent="cMHt4JDN44Z_v_gMNhpz-295" source="cMHt4JDN44Z_v_gMNhpz-341" target="cMHt4JDN44Z_v_gMNhpz-345">
          <mxGeometry relative="1" as="geometry" />
        </mxCell>
        <object label="Shift Reg y diff" placeholders="1" id="cMHt4JDN44Z_v_gMNhpz-341">
          <mxCell style="rounded=0;whiteSpace=wrap;html=1;fillColor=#008a00;fontColor=#ffffff;strokeColor=#005700;" vertex="1" parent="cMHt4JDN44Z_v_gMNhpz-295">
            <mxGeometry x="230" y="604" width="120" height="60" as="geometry" />
          </mxCell>
        </object>
        <mxCell id="cMHt4JDN44Z_v_gMNhpz-342" style="edgeStyle=orthogonalEdgeStyle;rounded=0;orthogonalLoop=1;jettySize=auto;html=1;entryX=0.5;entryY=0;entryDx=0;entryDy=0;" edge="1" parent="cMHt4JDN44Z_v_gMNhpz-295" source="cMHt4JDN44Z_v_gMNhpz-343" target="cMHt4JDN44Z_v_gMNhpz-346">
          <mxGeometry relative="1" as="geometry" />
        </mxCell>
        <object label="Shift Reg x diff" placeholders="1" id="cMHt4JDN44Z_v_gMNhpz-343">
          <mxCell style="rounded=0;whiteSpace=wrap;html=1;fillColor=#008a00;fontColor=#ffffff;strokeColor=#005700;" vertex="1" parent="cMHt4JDN44Z_v_gMNhpz-295">
            <mxGeometry x="50" y="724" width="120" height="60" as="geometry" />
          </mxCell>
        </object>
        <mxCell id="cMHt4JDN44Z_v_gMNhpz-344" style="edgeStyle=orthogonalEdgeStyle;rounded=0;orthogonalLoop=1;jettySize=auto;html=1;entryX=0.5;entryY=0;entryDx=0;entryDy=0;" edge="1" parent="cMHt4JDN44Z_v_gMNhpz-295" source="cMHt4JDN44Z_v_gMNhpz-345" target="cMHt4JDN44Z_v_gMNhpz-347">
          <mxGeometry relative="1" as="geometry" />
        </mxCell>
        <object label="Shift Reg y diff" placeholders="1" id="cMHt4JDN44Z_v_gMNhpz-345">
          <mxCell style="rounded=0;whiteSpace=wrap;html=1;fillColor=#008a00;fontColor=#ffffff;strokeColor=#005700;" vertex="1" parent="cMHt4JDN44Z_v_gMNhpz-295">
            <mxGeometry x="230" y="724" width="120" height="60" as="geometry" />
          </mxCell>
        </object>
        <object label="Shift Reg x diff" placeholders="1" id="cMHt4JDN44Z_v_gMNhpz-346">
          <mxCell style="rounded=0;whiteSpace=wrap;html=1;fillColor=#008a00;fontColor=#ffffff;strokeColor=#005700;" vertex="1" parent="cMHt4JDN44Z_v_gMNhpz-295">
            <mxGeometry x="50" y="844" width="120" height="60" as="geometry" />
          </mxCell>
        </object>
        <object label="Shift Reg y diff" placeholders="1" id="cMHt4JDN44Z_v_gMNhpz-347">
          <mxCell style="rounded=0;whiteSpace=wrap;html=1;fillColor=#008a00;fontColor=#ffffff;strokeColor=#005700;" vertex="1" parent="cMHt4JDN44Z_v_gMNhpz-295">
            <mxGeometry x="230" y="844" width="120" height="60" as="geometry" />
          </mxCell>
        </object>
        <object label="Shift Reg Inv Sqrt D" placeholders="1" id="cMHt4JDN44Z_v_gMNhpz-348">
          <mxCell style="rounded=0;whiteSpace=wrap;html=1;fillColor=#008a00;fontColor=#ffffff;strokeColor=#005700;" vertex="1" parent="cMHt4JDN44Z_v_gMNhpz-295">
            <mxGeometry x="640" y="604" width="120" height="60" as="geometry" />
          </mxCell>
        </object>
        <mxCell id="cMHt4JDN44Z_v_gMNhpz-349" value="" style="endArrow=classic;html=1;rounded=0;exitX=1;exitY=1;exitDx=0;exitDy=0;entryX=0.5;entryY=0;entryDx=0;entryDy=0;" edge="1" parent="cMHt4JDN44Z_v_gMNhpz-295" source="cMHt4JDN44Z_v_gMNhpz-316" target="cMHt4JDN44Z_v_gMNhpz-348">
          <mxGeometry width="50" height="50" relative="1" as="geometry">
            <mxPoint x="640" y="779" as="sourcePoint" />
            <mxPoint x="690" y="729" as="targetPoint" />
          </mxGeometry>
        </mxCell>
        <mxCell id="cMHt4JDN44Z_v_gMNhpz-350" value="" style="endArrow=classic;html=1;rounded=0;exitX=0;exitY=1;exitDx=0;exitDy=0;entryX=0.5;entryY=0;entryDx=0;entryDy=0;" edge="1" parent="cMHt4JDN44Z_v_gMNhpz-295" source="cMHt4JDN44Z_v_gMNhpz-316" target="cMHt4JDN44Z_v_gMNhpz-317">
          <mxGeometry width="50" height="50" relative="1" as="geometry">
            <mxPoint x="640" y="779" as="sourcePoint" />
            <mxPoint x="690" y="729" as="targetPoint" />
          </mxGeometry>
        </mxCell>
        <mxCell id="cMHt4JDN44Z_v_gMNhpz-351" value="" style="endArrow=classic;html=1;rounded=0;exitX=0.5;exitY=1;exitDx=0;exitDy=0;entryX=0;entryY=0;entryDx=0;entryDy=0;" edge="1" parent="cMHt4JDN44Z_v_gMNhpz-295" source="cMHt4JDN44Z_v_gMNhpz-317" target="cMHt4JDN44Z_v_gMNhpz-319">
          <mxGeometry width="50" height="50" relative="1" as="geometry">
            <mxPoint x="640" y="789" as="sourcePoint" />
            <mxPoint x="690" y="739" as="targetPoint" />
          </mxGeometry>
        </mxCell>
        <mxCell id="cMHt4JDN44Z_v_gMNhpz-352" value="" style="endArrow=classic;html=1;rounded=0;exitX=0.5;exitY=1;exitDx=0;exitDy=0;entryX=1;entryY=0;entryDx=0;entryDy=0;" edge="1" parent="cMHt4JDN44Z_v_gMNhpz-295" source="cMHt4JDN44Z_v_gMNhpz-348" target="cMHt4JDN44Z_v_gMNhpz-319">
          <mxGeometry width="50" height="50" relative="1" as="geometry">
            <mxPoint x="640" y="789" as="sourcePoint" />
            <mxPoint x="690" y="739" as="targetPoint" />
          </mxGeometry>
        </mxCell>
        <mxCell id="cMHt4JDN44Z_v_gMNhpz-353" value="" style="endArrow=classic;html=1;rounded=0;exitX=0.5;exitY=1;exitDx=0;exitDy=0;entryX=1;entryY=0;entryDx=0;entryDy=0;" edge="1" parent="cMHt4JDN44Z_v_gMNhpz-295" source="cMHt4JDN44Z_v_gMNhpz-321" target="cMHt4JDN44Z_v_gMNhpz-322">
          <mxGeometry width="50" height="50" relative="1" as="geometry">
            <mxPoint x="460" y="1129" as="sourcePoint" />
            <mxPoint x="510" y="1079" as="targetPoint" />
          </mxGeometry>
        </mxCell>
        <mxCell id="cMHt4JDN44Z_v_gMNhpz-354" value="" style="endArrow=classic;html=1;rounded=0;exitX=0;exitY=1;exitDx=0;exitDy=0;entryX=1;entryY=0;entryDx=0;entryDy=0;" edge="1" parent="cMHt4JDN44Z_v_gMNhpz-295" source="cMHt4JDN44Z_v_gMNhpz-321" target="cMHt4JDN44Z_v_gMNhpz-323">
          <mxGeometry width="50" height="50" relative="1" as="geometry">
            <mxPoint x="460" y="1129" as="sourcePoint" />
            <mxPoint x="510" y="1079" as="targetPoint" />
          </mxGeometry>
        </mxCell>
        <mxCell id="cMHt4JDN44Z_v_gMNhpz-355" value="" style="endArrow=classic;html=1;rounded=0;exitX=0.5;exitY=1;exitDx=0;exitDy=0;entryX=0;entryY=0;entryDx=0;entryDy=0;" edge="1" parent="cMHt4JDN44Z_v_gMNhpz-295" source="cMHt4JDN44Z_v_gMNhpz-347" target="cMHt4JDN44Z_v_gMNhpz-322">
          <mxGeometry width="50" height="50" relative="1" as="geometry">
            <mxPoint x="400" y="1139" as="sourcePoint" />
            <mxPoint x="450" y="1089" as="targetPoint" />
          </mxGeometry>
        </mxCell>
        <mxCell id="cMHt4JDN44Z_v_gMNhpz-356" value="" style="endArrow=classic;html=1;rounded=0;exitX=0.473;exitY=1.014;exitDx=0;exitDy=0;exitPerimeter=0;entryX=0;entryY=0;entryDx=0;entryDy=0;" edge="1" parent="cMHt4JDN44Z_v_gMNhpz-295" source="cMHt4JDN44Z_v_gMNhpz-346" target="cMHt4JDN44Z_v_gMNhpz-323">
          <mxGeometry width="50" height="50" relative="1" as="geometry">
            <mxPoint x="170" y="1119" as="sourcePoint" />
            <mxPoint x="220" y="1069" as="targetPoint" />
          </mxGeometry>
        </mxCell>
        <mxCell id="cMHt4JDN44Z_v_gMNhpz-357" value="" style="endArrow=classic;html=1;rounded=0;exitX=0.5;exitY=1;exitDx=0;exitDy=0;entryX=1;entryY=0;entryDx=0;entryDy=0;" edge="1" parent="cMHt4JDN44Z_v_gMNhpz-295" source="cMHt4JDN44Z_v_gMNhpz-320" target="cMHt4JDN44Z_v_gMNhpz-321">
          <mxGeometry width="50" height="50" relative="1" as="geometry">
            <mxPoint x="860" y="989" as="sourcePoint" />
            <mxPoint x="910" y="939" as="targetPoint" />
          </mxGeometry>
        </mxCell>
        <mxCell id="cMHt4JDN44Z_v_gMNhpz-360" value="x_1" style="text;html=1;align=center;verticalAlign=middle;whiteSpace=wrap;rounded=0;" vertex="1" parent="cMHt4JDN44Z_v_gMNhpz-295">
          <mxGeometry x="160" y="60" width="60" height="30" as="geometry" />
        </mxCell>
        <mxCell id="cMHt4JDN44Z_v_gMNhpz-361" value="x_2" style="text;html=1;align=center;verticalAlign=middle;whiteSpace=wrap;rounded=0;" vertex="1" parent="cMHt4JDN44Z_v_gMNhpz-295">
          <mxGeometry x="320" y="60" width="60" height="30" as="geometry" />
        </mxCell>
        <mxCell id="cMHt4JDN44Z_v_gMNhpz-362" value="" style="shape=flexArrow;endArrow=classic;html=1;rounded=0;entryX=1;entryY=0;entryDx=0;entryDy=0;" edge="1" parent="cMHt4JDN44Z_v_gMNhpz-295" source="cMHt4JDN44Z_v_gMNhpz-361" target="cMHt4JDN44Z_v_gMNhpz-299">
          <mxGeometry width="50" height="50" relative="1" as="geometry">
            <mxPoint x="257" y="70" as="sourcePoint" />
            <mxPoint x="327" y="102" as="targetPoint" />
          </mxGeometry>
        </mxCell>
        <mxCell id="cMHt4JDN44Z_v_gMNhpz-359" value="" style="shape=flexArrow;endArrow=classic;html=1;rounded=0;entryX=0;entryY=0;entryDx=0;entryDy=0;exitX=0.75;exitY=1;exitDx=0;exitDy=0;" edge="1" parent="cMHt4JDN44Z_v_gMNhpz-295" source="cMHt4JDN44Z_v_gMNhpz-360" target="cMHt4JDN44Z_v_gMNhpz-299">
          <mxGeometry width="50" height="50" relative="1" as="geometry">
            <mxPoint x="150" y="90" as="sourcePoint" />
            <mxPoint x="240" y="260" as="targetPoint" />
          </mxGeometry>
        </mxCell>
        <mxCell id="cMHt4JDN44Z_v_gMNhpz-366" value="y_1" style="text;html=1;align=center;verticalAlign=middle;whiteSpace=wrap;rounded=0;" vertex="1" parent="cMHt4JDN44Z_v_gMNhpz-295">
          <mxGeometry x="380" y="60" width="60" height="30" as="geometry" />
        </mxCell>
        <mxCell id="cMHt4JDN44Z_v_gMNhpz-367" value="y_2" style="text;html=1;align=center;verticalAlign=middle;whiteSpace=wrap;rounded=0;" vertex="1" parent="cMHt4JDN44Z_v_gMNhpz-295">
          <mxGeometry x="540" y="60" width="60" height="30" as="geometry" />
        </mxCell>
        <mxCell id="cMHt4JDN44Z_v_gMNhpz-368" value="" style="shape=flexArrow;endArrow=classic;html=1;rounded=0;entryX=1;entryY=0;entryDx=0;entryDy=0;" edge="1" parent="cMHt4JDN44Z_v_gMNhpz-295" source="cMHt4JDN44Z_v_gMNhpz-367" target="cMHt4JDN44Z_v_gMNhpz-300">
          <mxGeometry width="50" height="50" relative="1" as="geometry">
            <mxPoint x="497" y="57" as="sourcePoint" />
            <mxPoint x="574" y="109" as="targetPoint" />
          </mxGeometry>
        </mxCell>
        <mxCell id="cMHt4JDN44Z_v_gMNhpz-369" value="" style="shape=flexArrow;endArrow=classic;html=1;rounded=0;entryX=0;entryY=0;entryDx=0;entryDy=0;exitX=0.75;exitY=1;exitDx=0;exitDy=0;" edge="1" parent="cMHt4JDN44Z_v_gMNhpz-295" source="cMHt4JDN44Z_v_gMNhpz-366" target="cMHt4JDN44Z_v_gMNhpz-300">
          <mxGeometry width="50" height="50" relative="1" as="geometry">
            <mxPoint x="390" y="77" as="sourcePoint" />
            <mxPoint x="460" y="109" as="targetPoint" />
          </mxGeometry>
        </mxCell>
        <mxCell id="cMHt4JDN44Z_v_gMNhpz-371" value="m_2" style="text;html=1;align=center;verticalAlign=middle;whiteSpace=wrap;rounded=0;" vertex="1" parent="cMHt4JDN44Z_v_gMNhpz-295">
          <mxGeometry x="930" y="50" width="60" height="30" as="geometry" />
        </mxCell>
        <mxCell id="cMHt4JDN44Z_v_gMNhpz-370" value="" style="shape=flexArrow;endArrow=classic;html=1;rounded=0;entryX=0.5;entryY=0;entryDx=0;entryDy=0;exitX=0.5;exitY=1;exitDx=0;exitDy=0;" edge="1" parent="cMHt4JDN44Z_v_gMNhpz-295" source="cMHt4JDN44Z_v_gMNhpz-371" target="cMHt4JDN44Z_v_gMNhpz-305">
          <mxGeometry width="50" height="50" relative="1" as="geometry">
            <mxPoint x="960" y="80" as="sourcePoint" />
            <mxPoint x="840" y="100" as="targetPoint" />
          </mxGeometry>
        </mxCell>
        <mxCell id="cMHt4JDN44Z_v_gMNhpz-373" value="a_x" style="text;html=1;align=center;verticalAlign=middle;whiteSpace=wrap;rounded=0;" vertex="1" parent="cMHt4JDN44Z_v_gMNhpz-295">
          <mxGeometry x="170" y="1120" width="60" height="30" as="geometry" />
        </mxCell>
        <mxCell id="cMHt4JDN44Z_v_gMNhpz-372" value="" style="shape=flexArrow;endArrow=classic;html=1;rounded=0;exitX=0.5;exitY=1;exitDx=0;exitDy=0;entryX=0.5;entryY=0;entryDx=0;entryDy=0;" edge="1" parent="cMHt4JDN44Z_v_gMNhpz-295" source="cMHt4JDN44Z_v_gMNhpz-323" target="cMHt4JDN44Z_v_gMNhpz-373">
          <mxGeometry width="50" height="50" relative="1" as="geometry">
            <mxPoint x="340" y="1000" as="sourcePoint" />
            <mxPoint x="200" y="1120" as="targetPoint" />
          </mxGeometry>
        </mxCell>
        <mxCell id="cMHt4JDN44Z_v_gMNhpz-375" value="a_y" style="text;html=1;align=center;verticalAlign=middle;whiteSpace=wrap;rounded=0;" vertex="1" parent="cMHt4JDN44Z_v_gMNhpz-295">
          <mxGeometry x="407" y="1120" width="60" height="30" as="geometry" />
        </mxCell>
        <mxCell id="cMHt4JDN44Z_v_gMNhpz-376" value="" style="shape=flexArrow;endArrow=classic;html=1;rounded=0;exitX=0.5;exitY=1;exitDx=0;exitDy=0;entryX=0.5;entryY=0;entryDx=0;entryDy=0;" edge="1" parent="cMHt4JDN44Z_v_gMNhpz-295" target="cMHt4JDN44Z_v_gMNhpz-375" source="cMHt4JDN44Z_v_gMNhpz-322">
          <mxGeometry width="50" height="50" relative="1" as="geometry">
            <mxPoint x="437" y="1079" as="sourcePoint" />
            <mxPoint x="437" y="1120" as="targetPoint" />
          </mxGeometry>
        </mxCell>
      </root>
    </mxGraphModel>
  </diagram>
</mxfile>
